<?xml version="1.0" standalone="no"?>
<!DOCTYPE svg PUBLIC "-//W3C//DTD SVG 20010904//EN"
 "http://www.w3.org/TR/2001/REC-SVG-20010904/DTD/svg10.dtd">
<svg version="1.0" xmlns="http://www.w3.org/2000/svg"
 width="260.000000pt" height="260.000000pt" viewBox="0 0 260.000000 260.000000"
 preserveAspectRatio="xMidYMid meet">
<metadata>
Created by potrace 1.14, written by Peter Selinger 2001-2017
</metadata>
<g transform="translate(0.000000,260.000000) scale(0.100000,-0.100000)"
fill="#000000" stroke="none">
<path d="M2046 2589 c2 -4 -1 -11 -8 -16 -19 -12 -66 -68 -49 -58 9 5 12 4 7
-3 -4 -7 -14 -12 -22 -12 -8 0 -13 -3 -13 -7 4 -23 -2 -43 -11 -38 -6 4 -7 -1
-3 -11 4 -12 3 -15 -5 -10 -8 5 -10 2 -6 -8 3 -9 1 -16 -6 -16 -6 0 -8 -4 -5
-10 3 -5 1 -10 -5 -10 -7 0 -10 -7 -6 -15 3 -8 1 -15 -5 -15 -6 0 -7 -4 -4
-10 3 -5 -1 -10 -9 -10 -10 0 -13 -6 -10 -15 4 -8 2 -15 -3 -15 -9 0 -11 -6
-15 -49 -1 -11 -6 -17 -10 -15 -4 3 -8 -1 -9 -8 0 -7 -3 -22 -6 -33 -2 -11 -5
-28 -6 -37 -1 -10 -4 -18 -8 -18 -3 0 -11 -10 -16 -23 -12 -25 -6 -80 7 -72 4
3 14 -3 21 -12 12 -14 12 -16 0 -8 -10 5 -12 4 -7 -3 4 -7 13 -12 19 -12 7 0
22 -11 34 -24 25 -26 63 -40 63 -24 0 6 7 5 16 -2 8 -8 14 -9 13 -4 -3 18 1
35 9 31 4 -2 15 4 24 14 12 12 13 19 5 23 -7 2 -4 5 6 5 10 1 16 5 12 10 -3 5
-1 12 5 16 6 4 8 11 5 16 -4 5 -2 9 2 9 8 0 35 55 37 75 1 6 10 18 21 28 11
10 14 16 8 12 -7 -3 -13 -2 -13 3 0 6 7 13 16 16 9 4 14 13 10 21 -3 8 -1 15
4 15 6 0 10 8 10 18 0 10 7 28 16 40 10 15 11 22 3 22 -8 0 -8 4 -1 13 20 24
39 177 23 177 -6 0 -10 3 -10 8 3 19 -2 33 -10 27 -5 -3 -17 2 -25 11 -16 16
-100 28 -90 13z"/>
<path d="M1584 2455 c-4 -8 -10 -12 -15 -9 -5 3 -9 -1 -9 -8 0 -7 -9 -30 -19
-50 -11 -19 -17 -39 -14 -42 4 -3 1 -6 -6 -6 -7 0 -10 -4 -7 -9 4 -5 1 -11 -4
-13 -6 -2 -13 -16 -16 -32 -3 -16 -9 -37 -14 -46 -5 -10 -7 -20 -3 -23 3 -3
-9 -24 -27 -47 -17 -22 -28 -40 -24 -40 4 0 3 -5 -4 -12 -15 -15 -16 -48 -1
-48 5 0 7 -4 4 -10 -3 -5 -1 -10 6 -10 8 0 8 -4 -1 -15 -7 -8 -16 -12 -21 -10
-11 7 -30 -30 -21 -40 4 -5 2 -5 -5 -1 -7 3 -14 -2 -18 -14 -4 -11 -16 -30
-28 -42 -12 -11 -16 -18 -9 -14 18 11 14 -5 -5 -20 -10 -7 -19 -17 -19 -23 -1
-6 -2 -12 -4 -13 -10 -13 -3 -49 12 -59 10 -7 18 -20 18 -29 0 -13 -1 -13 -10
0 -6 9 -10 11 -10 3 0 -7 -6 -10 -14 -7 -8 3 -17 0 -21 -5 -3 -6 -11 -8 -17
-5 -6 4 -8 2 -5 -3 4 -6 0 -16 -9 -23 -12 -10 -12 -15 -2 -21 9 -6 8 -10 -5
-15 -10 -3 -17 -17 -17 -30 0 -14 -6 -27 -12 -29 -7 -3 -14 -17 -14 -31 -1
-14 -10 -32 -20 -39 -11 -8 -16 -15 -11 -15 4 0 -2 -16 -13 -37 -20 -38 -18
-51 19 -89 11 -12 17 -25 13 -30 -4 -4 1 -4 11 -1 9 4 17 3 17 -2 0 -5 11 -8
25 -8 14 0 25 3 25 7 0 5 12 7 26 5 14 -1 32 4 40 12 8 8 14 11 14 6 0 -4 10
12 22 37 12 25 26 47 30 48 5 2 6 8 2 13 -3 5 -1 9 4 9 11 0 26 45 25 73 0 9
3 17 6 17 10 0 3 80 -10 112 -7 17 -16 25 -23 21 -6 -4 -5 1 3 11 9 11 18 13
24 7 10 -10 67 12 67 25 0 3 -4 2 -10 -1 -6 -3 -7 1 -4 10 4 9 9 13 12 10 7
-7 42 51 42 71 0 9 5 12 13 8 9 -5 9 -4 0 6 -9 9 -9 18 -1 33 5 11 6 22 1 26
-4 3 -9 20 -11 36 -2 21 0 26 6 16 6 -8 11 -9 13 -3 2 6 19 12 38 14 30 4 38
11 60 54 14 27 29 50 33 52 4 2 4 10 1 18 -3 8 1 14 8 14 7 0 9 3 6 6 -4 4 3
20 15 37 12 17 17 27 10 23 -8 -5 -10 -2 -6 8 3 9 11 16 16 16 6 0 8 9 5 20
-3 11 -1 23 5 26 14 9 7 93 -11 132 -13 29 -32 38 -64 33 -4 -1 -16 3 -27 9
-13 7 -20 6 -23 -3 -4 -9 -6 -9 -6 1 -1 17 -20 15 -27 -3z"/>
<path d="M2213 2213 c-13 -2 -23 -9 -23 -14 0 -6 -5 -7 -12 -3 -6 4 -8 3 -4
-4 3 -6 -1 -18 -10 -26 -8 -9 -13 -16 -9 -16 4 0 -1 -7 -9 -16 -9 -8 -16 -22
-16 -30 0 -8 -4 -14 -10 -14 -5 0 -9 -3 -8 -7 4 -13 -24 -73 -33 -73 -5 0 -9
-6 -9 -14 0 -24 -36 -96 -45 -88 -4 4 -5 -1 -2 -10 4 -11 1 -18 -6 -18 -8 0
-8 -3 2 -9 9 -6 10 -11 2 -15 -12 -8 45 -73 60 -68 5 1 9 -2 9 -6 0 -8 44 -9
60 -2 3 1 8 2 13 1 4 0 7 4 7 11 0 6 3 8 6 5 8 -8 54 43 54 59 0 6 10 22 23
35 12 14 22 30 23 37 3 38 5 43 14 37 6 -3 10 3 10 14 0 12 5 21 11 21 5 0 8
4 5 9 -4 5 -2 11 4 13 5 1 12 21 16 43 3 22 8 43 10 47 2 4 0 9 -6 13 -6 4 -8
11 -5 16 4 5 1 9 -6 9 -7 0 -10 3 -6 6 3 4 0 13 -8 20 -7 8 -15 18 -17 24 -4
12 -52 20 -85 13z"/>
<path d="M595 2040 c-4 -6 -13 -9 -21 -6 -7 3 -16 1 -19 -5 -4 -5 -10 -7 -14
-5 -4 3 -16 -9 -26 -26 -19 -33 -29 -138 -12 -138 5 0 7 -7 3 -15 -3 -10 1
-15 12 -15 15 0 15 -2 2 -10 -9 -6 -10 -10 -3 -10 10 0 26 -32 26 -50 0 -3 8
-11 19 -18 10 -7 16 -18 13 -23 -4 -5 1 -9 9 -9 8 0 18 -9 21 -20 3 -11 13
-20 21 -20 8 0 13 -4 10 -9 -3 -5 1 -12 10 -15 8 -3 12 -10 9 -16 -3 -6 1 -13
9 -16 9 -3 13 -10 10 -15 -3 -5 0 -9 5 -9 6 0 11 -7 11 -15 0 -8 5 -15 11 -15
5 0 8 -4 4 -9 -3 -5 -1 -12 5 -16 6 -4 8 -10 5 -15 -3 -5 0 -12 6 -16 8 -5 9
-3 4 7 -5 9 -5 11 2 4 10 -10 36 -89 37 -115 1 -8 -1 -24 -5 -35 -4 -12 -1
-25 7 -33 8 -7 14 -10 14 -6 0 4 9 -3 20 -16 24 -27 72 -37 63 -12 -4 10 -2
13 5 8 7 -4 12 -1 12 8 0 9 5 16 11 16 5 0 7 4 4 10 -3 5 -1 18 4 27 6 10 11
14 11 9 0 -5 10 2 23 16 18 19 22 33 19 62 -2 20 -8 36 -14 36 -5 0 -6 5 -3
10 3 6 1 10 -6 10 -7 0 -9 3 -6 7 4 3 1 13 -6 21 -8 11 -8 13 0 9 8 -5 8 -1 0
18 -7 14 -16 25 -21 25 -5 0 -3 7 4 15 9 10 9 15 1 15 -6 0 -11 9 -11 19 0 11
-5 23 -10 26 -6 4 -8 10 -5 15 3 5 0 12 -6 16 -8 4 -7 9 2 15 12 7 12 9 0 9
-7 0 -11 6 -7 15 3 8 1 15 -5 15 -6 0 -7 5 -4 10 3 6 1 10 -6 10 -7 0 -10 3
-6 6 3 4 -3 24 -14 45 -11 22 -16 39 -12 39 5 0 0 5 -9 11 -10 5 -18 19 -18
29 0 11 -4 20 -10 20 -5 0 -10 5 -10 10 0 15 -67 80 -74 73 -3 -4 -6 -1 -6 6
0 8 -6 11 -16 7 -10 -4 -13 -2 -8 6 5 8 2 9 -9 5 -10 -3 -17 -2 -17 4 0 6 -5
7 -11 3 -6 -3 -15 -1 -19 6 -6 9 -9 9 -15 0z"/>
<path d="M1830 1990 c0 -4 -11 -6 -25 -4 -18 1 -36 -7 -56 -27 -16 -16 -27
-29 -24 -29 4 0 -3 -13 -15 -30 -12 -16 -18 -30 -15 -30 4 0 -3 -9 -16 -20
-13 -10 -20 -19 -15 -20 5 0 1 -9 -9 -20 -10 -11 -14 -20 -9 -20 5 0 3 -4 -5
-9 -32 -20 -17 -111 18 -111 6 0 11 -5 11 -11 0 -6 7 -9 15 -5 8 3 14 0 12 -6
-3 -17 56 -18 78 -2 10 8 16 17 12 20 -7 8 15 33 25 28 4 -3 5 5 3 16 -2 11 0
18 5 15 5 -3 11 4 15 15 3 11 11 20 16 20 6 0 7 5 4 10 -4 6 -1 17 5 25 6 8 9
19 5 25 -3 5 -1 10 5 10 7 0 10 7 6 15 -3 8 -1 15 5 15 6 0 7 5 4 10 -3 6 -2
10 2 10 7 0 9 33 4 83 -1 4 -8 7 -17 7 -8 0 -13 4 -10 9 3 5 -3 11 -14 14 -11
3 -20 2 -20 -3z"/>
<path d="M2010 1739 c0 -6 -5 -9 -12 -7 -13 5 -53 -31 -53 -47 -1 -5 -7 -9
-14 -7 -7 1 -10 -2 -7 -6 3 -5 -5 -21 -19 -36 -13 -14 -21 -26 -18 -26 3 0 0
-7 -7 -15 -7 -8 -9 -15 -4 -15 5 0 4 -4 -3 -8 -6 -4 -13 -14 -15 -22 -2 -8
-10 -20 -18 -27 -12 -10 -12 -12 -1 -13 7 0 11 -6 8 -14 -6 -15 26 -46 48 -46
8 0 15 -5 15 -11 0 -5 4 -8 9 -4 5 3 15 0 23 -7 12 -12 65 -22 54 -11 -3 3 6
15 19 28 14 12 22 25 18 28 -3 4 0 7 7 7 7 0 11 3 7 6 -5 6 0 15 31 49 7 8 10
15 6 15 -4 0 0 8 9 18 10 10 14 22 10 25 -3 4 -1 7 5 7 7 0 11 3 11 8 -1 4 0
9 1 12 7 19 7 40 -1 40 -4 0 -6 7 -3 15 4 8 1 15 -5 15 -6 0 -10 3 -9 8 3 14
-14 42 -23 36 -5 -3 -9 0 -9 5 0 6 -13 11 -30 11 -16 0 -30 -5 -30 -11z"/>
<path d="M2370 1706 c0 -5 -3 -7 -6 -3 -8 7 -60 -44 -56 -56 1 -5 -2 -5 -8 -2
-7 4 -14 -2 -17 -14 -3 -12 -9 -21 -14 -21 -5 0 -9 -7 -9 -15 0 -8 -4 -15 -10
-15 -5 0 -9 -3 -9 -7 3 -21 -2 -33 -12 -28 -6 4 -13 -2 -16 -14 -3 -12 -9 -21
-13 -21 -4 0 -7 -12 -8 -27 0 -51 -2 -55 -17 -49 -8 3 -15 1 -15 -4 0 -6 -3
-9 -8 -7 -7 2 -24 -10 -67 -50 -24 -22 -25 -52 -2 -80 6 -9 4 -15 -8 -19 -9
-4 -20 -2 -24 4 -4 7 -16 10 -28 8 -24 -5 -73 -48 -73 -65 0 -6 -5 -11 -11
-11 -5 0 -7 -5 -3 -12 4 -7 3 -8 -4 -4 -7 4 -20 -7 -33 -29 -13 -21 -27 -34
-35 -31 -8 3 -11 0 -7 -10 3 -7 0 -14 -6 -14 -6 0 -11 -7 -11 -16 0 -8 -4 -13
-9 -9 -6 3 -8 -3 -6 -15 2 -11 0 -22 -4 -24 -12 -8 0 -74 16 -88 23 -19 66
-15 86 7 10 11 15 13 12 5 -4 -8 15 9 43 38 28 29 54 61 57 73 4 11 9 18 12
15 7 -7 25 13 42 46 8 15 18 25 23 22 5 -3 7 6 5 21 -2 15 -10 31 -18 36 -8 5
-9 9 -4 9 6 0 2 7 -8 14 -12 10 -15 16 -7 21 13 8 25 -1 25 -17 0 -6 9 -12 20
-14 11 -2 21 -8 23 -13 2 -7 10 -8 21 -1 10 5 21 6 25 3 3 -3 6 1 6 10 0 9 4
17 9 17 4 0 20 23 34 50 14 28 22 50 17 50 -12 0 -8 41 4 56 6 6 20 9 31 6 24
-4 85 49 85 74 0 9 4 12 10 9 5 -3 7 0 5 7 -3 8 4 24 15 36 11 12 17 22 13 22
-4 0 2 7 13 15 12 9 14 14 6 15 -10 0 -9 4 2 16 9 8 14 19 11 24 -3 5 -1 11 5
15 5 3 10 10 10 14 0 14 -41 51 -51 46 -5 -4 -9 -2 -9 4 0 5 -9 9 -20 8 -11
-1 -20 -6 -20 -11z"/>
<path d="M1648 1624 c-6 -5 -31 -12 -53 -13 -14 -1 -85 -64 -85 -74 0 -5 -17
-25 -37 -45 -20 -19 -38 -45 -40 -56 -2 -12 -4 -26 -5 -33 -1 -7 -4 -10 -8 -8
-4 2 -12 -7 -18 -20 -7 -14 -17 -25 -23 -25 -8 0 -9 -4 0 -13 6 -8 8 -17 4
-20 -3 -4 1 -7 9 -7 9 0 23 -16 32 -35 9 -19 21 -37 26 -40 6 -4 8 -10 5 -14
-2 -5 7 -8 21 -8 15 0 29 -4 33 -9 11 -16 31 -14 31 3 0 9 3 13 7 10 3 -4 17
9 30 28 13 19 28 35 33 35 6 0 9 3 9 8 -3 19 2 33 10 28 5 -3 16 9 26 27 35
67 45 82 56 79 7 -2 9 4 6 13 -4 8 -3 15 2 15 4 0 8 6 9 13 0 6 3 28 5 47 3
23 -1 42 -12 54 -13 16 -13 18 -1 11 8 -4 4 3 -10 16 -14 14 -31 23 -39 20 -9
-3 -12 0 -7 7 7 12 -6 17 -16 6z"/>
<path d="M1764 1393 c-19 -17 -34 -35 -34 -38 0 -4 -10 -21 -22 -38 -13 -18
-22 -34 -21 -37 0 -3 -6 -16 -14 -30 -8 -14 -12 -17 -9 -7 3 11 2 15 -4 12 -6
-3 -10 -13 -10 -21 0 -8 -5 -12 -10 -9 -6 4 -9 3 -8 -2 1 -4 -3 -18 -10 -30
-7 -13 -10 -23 -6 -23 4 0 0 -8 -8 -17 -16 -19 -21 -56 -6 -47 4 3 8 0 8 -5 0
-6 9 -11 19 -11 10 0 22 -7 25 -16 3 -9 13 -14 20 -11 8 3 16 2 18 -4 2 -5 21
-2 45 7 23 9 41 20 38 24 -2 3 5 12 15 20 10 8 17 17 14 21 -2 4 5 10 16 14
11 3 20 12 20 18 0 7 14 25 31 40 17 15 28 27 24 27 -3 0 2 12 13 28 11 15 18
35 17 45 -2 9 1 17 6 17 6 0 6 7 1 18 -5 9 -7 23 -5 30 3 6 0 12 -6 12 -6 0
-11 7 -11 15 0 8 -7 15 -16 15 -8 0 -13 4 -10 8 3 5 -15 8 -41 8 -37 -1 -52
-7 -79 -33z"/>
<path d="M1092 1333 c-13 -3 -26 -11 -29 -19 -3 -8 -8 -12 -13 -9 -4 2 -16 -4
-26 -13 -10 -10 -27 -21 -37 -25 -10 -4 -16 -11 -12 -16 3 -6 -3 -8 -14 -6
-15 3 -18 0 -14 -12 4 -10 2 -14 -4 -10 -13 8 -39 -30 -49 -69 -4 -16 -12 -35
-18 -43 -9 -12 -8 -13 4 -6 12 7 13 6 4 -6 -14 -17 -13 -207 0 -228 7 -10 5
-12 -5 -7 -10 6 -10 4 1 -6 14 -12 17 -25 22 -100 1 -16 6 -28 10 -28 5 0 6
-4 3 -10 -3 -5 -2 -10 4 -10 9 0 24 -32 26 -53 0 -5 8 -14 17 -21 10 -7 15
-16 12 -19 -4 -3 3 -17 14 -31 10 -14 22 -22 26 -18 4 3 4 -1 1 -10 -4 -11 0
-18 14 -23 12 -3 19 -11 16 -16 -4 -5 1 -9 9 -9 9 0 16 -6 16 -14 0 -8 9 -18
20 -21 11 -4 18 -10 15 -15 -3 -4 2 -10 10 -14 8 -3 15 -13 15 -21 0 -9 5 -13
10 -10 6 3 10 0 10 -7 0 -7 11 -25 24 -40 14 -14 22 -29 19 -32 -4 -3 1 -6 9
-6 8 0 23 -11 34 -24 10 -14 21 -23 26 -20 4 3 8 0 8 -5 0 -6 9 -11 19 -11 11
0 21 -4 23 -10 2 -5 15 -11 30 -12 15 -1 29 -7 32 -13 5 -14 152 -10 190 5 15
5 31 8 36 5 4 -3 10 2 14 10 3 8 12 12 21 9 8 -3 15 -1 15 6 0 6 5 8 10 5 6
-3 10 -1 10 4 0 6 7 11 14 11 8 0 27 11 42 25 15 14 24 25 21 25 -4 0 1 9 11
20 9 12 17 26 17 33 1 7 5 11 11 10 5 -1 11 7 12 18 4 43 6 49 15 49 5 0 3 8
-4 17 -8 9 -9 14 -3 10 15 -9 11 65 -5 106 -6 16 -9 33 -5 38 3 5 -2 9 -10 9
-9 0 -15 4 -13 9 2 10 -59 71 -72 71 -5 0 -13 9 -16 20 -3 11 -12 20 -18 20
-7 0 -19 9 -27 19 -7 11 -17 18 -22 15 -4 -3 -8 0 -8 7 0 6 -8 9 -20 6 -11 -3
-18 -1 -14 4 3 5 -4 9 -14 9 -21 0 -50 37 -58 73 -9 38 -12 52 -14 55 -2 1 -3
5 -4 10 -1 4 -4 12 -7 17 -5 8 -12 29 -24 75 -8 30 -18 50 -27 50 -6 0 -8 9
-5 20 3 11 1 18 -4 14 -5 -3 -9 0 -9 7 0 6 -10 20 -22 30 -11 11 -17 19 -13
19 11 0 -40 46 -60 53 -9 4 -13 11 -10 17 3 5 2 10 -3 10 -5 0 -22 10 -38 22
-15 12 -35 23 -43 25 -44 7 -109 10 -129 6z"/>
</g>
</svg>
